<svg id="SvgjsSvg1001" width="288" height="288" xmlns="http://www.w3.org/2000/svg" version="1.1" xmlns:xlink="http://www.w3.org/1999/xlink" xmlns:svgjs="http://svgjs.com/svgjs"><defs id="SvgjsDefs1002"></defs><g id="SvgjsG1008"><svg xmlns="http://www.w3.org/2000/svg" viewBox="0 71.83 512 368.34" width="288" height="288"><path d="M319.265,365.073c-1.169,8.244,3.595,16.435,11.754,19.287c9.28,3.245,19.436-1.65,22.681-10.933l5.657-16.186    L319.265,365.073z" fill="#2ea300" class="color000 svgShape"></path><circle cx="424.168" cy="104.574" r="32.746" fill="#2ea300" class="color000 svgShape"></circle><circle cx="86.864" cy="180.354" r="32.746" fill="#2ea300" class="color000 svgShape"></circle><path d="M511.667 287.869c-1.885-9.65-11.236-15.945-20.886-14.061l-21.834 4.264c6.954-4.792 10.736-12.476 10.758-20.373.028-10.079.203-74.077.231-84.266.038-13.87-11.296-25.011-25.023-24.913l-22.854.163c-13.802.099-24.882 11.44-24.664 25.236l.171 10.845 31.969-22.324-38.028 42.605c-7.882-.763-58.959-5.705-66.751-6.458-8.153-.785-15.407 5.183-16.197 13.339-.788 8.156 5.183 15.407 13.339 16.197 12.247 1.185 65.514 6.339 74.239 7.183 4.726.455 9.36-1.373 12.498-4.888l37.124-41.593-25.186 51.421c-2.554 5.215-4.676 10.975-10.894 12.369-37.919 6.611-31.186 5.437-55.161 9.617-11.609 2.023-13.797 11.802-15.915 17.861l-8.059 23.058-161.432 31.531c1.615 13.832-6.003 21.85-10.03 26.911l-10.67 13.413 82.748-16.162c0 9.516 0 41.677 0 51.28h-32.804c-8.193 0-14.836 6.643-14.836 14.836 0 8.193 6.643 14.836 14.836 14.836h95.281c8.193 0 14.836-6.643 14.836-14.836 0-8.193-6.643-14.836-14.836-14.836h-32.804c0-10.425 0-43.416 0-57.075l89.472-17.476c0-4.86 0-1.428 0-12.374 0-5.318-1.154-15.496 9.029-21.916l49.564-31.05-40.118 40.423c-3.309 3.335-5.167 7.843-5.167 12.541v83.613c0 9.832 7.971 17.804 17.804 17.804s17.804-7.971 17.804-17.804v-76.278l34.95-35.216-16.716 27.14 70.149-13.701C507.258 306.87 513.552 297.519 511.667 287.869zM182.514 290.121c-.641-8.168-7.778-14.267-15.951-13.63-16.813 1.318-39.969 3.135-56.927 4.465l-38.14-42.731 31.969 22.324.171-10.845c.218-13.804-10.87-25.137-24.674-25.236-25.2-.18-24.622-.351-28.103.376-8.81 1.152-19.802 10.702-19.765 24.373l.231 84.266c.037 13.209 10.662 24.915 26.903 24.672l-43.391 8.615c-9.343 1.825-15.978 10.543-14.673 19.972 1.413 10.212 11.073 17.011 21.053 15.062l38.104-7.443 25.013-31.443-19.735-3.678 41.856-.122-41.196 51.786c-6.125 7.7-5.237 19.073 2.399 25.278 7.704 6.259 19.007 5.009 25.164-2.731l64.565-81.162c9.136-11.484 1.184-28.89-13.93-28.89h-.052l-78.91.231 18.384-3.538c0 0-4.011-7.302-27.605-55.486l37.124 41.593c3.077 3.448 7.595 5.274 12.229 4.912 10.693-.838 56.802-4.455 64.258-5.041C177.052 305.431 183.156 298.29 182.514 290.121z" fill="#2ea300" class="color000 svgShape"></path></svg></g></svg>